<?xml version="1.0" encoding="UTF-8"?>
<svg xmlns="http://www.w3.org/2000/svg" xmlns:xlink="http://www.w3.org/1999/xlink" width="9pt" height="9pt" viewBox="0 0 9 9" version="1.1">
<g id="surface1">
<path style=" stroke:none;fill-rule:nonzero;fill:rgb(0%,0%,0%);fill-opacity:1;" d="M 1.5 2.25 L 0.75 2.25 L 0.75 7.5 C 0.75 7.914062 1.085938 8.25 1.5 8.25 L 6.75 8.25 L 6.75 7.5 L 1.5 7.5 Z M 7.5 0.75 L 3 0.75 C 2.585938 0.75 2.25 1.085938 2.25 1.5 L 2.25 6 C 2.25 6.414062 2.585938 6.75 3 6.75 L 7.5 6.75 C 7.914062 6.75 8.25 6.414062 8.25 6 L 8.25 1.5 C 8.25 1.085938 7.914062 0.75 7.5 0.75 Z M 7.125 4.125 L 5.625 4.125 L 5.625 5.625 L 4.875 5.625 L 4.875 4.125 L 3.375 4.125 L 3.375 3.375 L 4.875 3.375 L 4.875 1.875 L 5.625 1.875 L 5.625 3.375 L 7.125 3.375 Z M 7.125 4.125 "/>
</g>
</svg>
